# xmcd CD database file
#
# Track frame offsets:
#	150
#	25565
#	46972
#	66837
#	85295
#	109964
#	133319
#	150137
#	164174
#	202681
#	222631
#	244263
#	263580
#
# Disc length: 3780 seconds
#
# Revision: 2
# Processed by: cddbd v1.5.2PL0 Copyright (c) Steve Scherf et al.
# Submitted via: CDex 1.70beta2
#
DISCID=b30ec20d
DTITLE=Wilbur De Paris - The Ultimate Jazz Archive Set 09
DYEAR=2005
DGENRE=Jazz
TTITLE0=Milenberg Joys
TTITLE1=Bill Balley, Won't You Please Come Home
TTITLE2=Change Of Key Boogie, Part 1
TTITLE3=Change Of Key Boogie, Part 2
TTITLE4=Blue (My Nauhtie Sweetie Gives To Me)
TTITLE5=Marchin' And Swingin'
TTITLE6=Original Jelly Roll Blues
TTITLE7=Too Much Mustard
TTITLE8=The Florida Blues
TTITLE9=The Pearls
TTITLE10=Russian Rag
TTITLE11=Blame It On The Blues
TTITLE12=Alexanders Ragtime Band
EXTD=YEAR: 2005
EXTT0=
EXTT1=
EXTT2=
EXTT3=
EXTT4=
EXTT5=
EXTT6=
EXTT7=
EXTT8=
EXTT9=
EXTT10=
EXTT11=
EXTT12=
PLAYORDER=
